<svg xmlns="http://www.w3.org/2000/svg" version="1.1" xmlns:xlink="http://www.w3.org/1999/xlink" viewBox="0 0 200 200"><rect width="200" height="200" fill="url('#gradient')"></rect><defs><linearGradient id="gradient" gradientTransform="rotate(45 0.5 0.5)"><stop offset="0%" stop-color="#6688ba"></stop><stop offset="100%" stop-color="#8e4b99"></stop></linearGradient></defs><g><g fill="#5d9e57" transform="matrix(1.6374224343675419,0,0,1.6374224343675419,31.242443183054505,112.11926952116245)" stroke="#5bcad4" stroke-width="0.5"><path d="M6.85 0L1.07 0L1.07-14.22L6.18-14.22Q8.93-14.22 10.36-13.21Q11.79-12.21 11.79-10.29L11.79-10.29Q11.79-9.19 11.28-8.41Q10.77-7.63 9.79-7.26L9.79-7.26Q10.90-6.96 11.49-6.16Q12.09-5.36 12.09-4.21L12.09-4.21Q12.09-2.12 10.77-1.07Q9.44-0.02 6.85 0L6.85 0ZM6.90-6.04L4.50-6.04L4.50-2.64L6.75-2.64Q7.68-2.64 8.17-3.06Q8.67-3.49 8.67-4.26L8.67-4.26Q8.67-6.04 6.90-6.04L6.90-6.04ZM4.50-11.57L4.50-8.29L6.29-8.29Q7.41-8.30 7.89-8.70Q8.37-9.10 8.37-9.88L8.37-9.88Q8.37-10.78 7.85-11.18Q7.33-11.57 6.18-11.57L6.18-11.57L4.50-11.57ZM18.94 0.20L18.94 0.20Q16.50 0.20 15-1.25Q13.50-2.71 13.50-5.03L13.50-5.03L13.50-5.30Q13.50-6.92 14.10-8.16Q14.70-9.40 15.85-10.08Q17.00-10.76 18.58-10.76L18.58-10.76Q20.81-10.76 22.10-9.38Q23.39-8.00 23.39-5.53L23.39-5.53L23.39-4.25L16.85-4.25Q17.02-3.36 17.62-2.85Q18.21-2.34 19.16-2.34L19.16-2.34Q20.72-2.34 21.60-3.44L21.60-3.44L23.11-1.66Q22.49-0.81 21.36-0.31Q20.23 0.20 18.94 0.20ZM18.56-8.22L18.56-8.22Q17.12-8.22 16.85-6.31L16.85-6.31L20.17-6.31L20.17-6.56Q20.19-7.35 19.77-7.79Q19.35-8.22 18.56-8.22ZM39.50-5.36L39.50-5.20Q39.50-2.60 38.43-1.20Q37.35 0.20 35.40 0.20L35.40 0.20Q33.79 0.20 32.80-1.08L32.80-1.08L32.67 0L29.72 0L29.72-15L33.01-15L33.01-9.72Q33.93-10.76 35.38-10.76L35.38-10.76Q37.35-10.76 38.43-9.35Q39.50-7.93 39.50-5.36L39.50-5.36ZM36.20-5.40L36.20-5.40Q36.20-6.92 35.80-7.57Q35.39-8.22 34.55-8.22L34.55-8.22Q33.44-8.22 33.01-7.37L33.01-7.37L33.01-3.17Q33.43-2.33 34.57-2.33L34.57-2.33Q35.73-2.33 36.04-3.47L36.04-3.47Q36.20-4.02 36.20-5.40ZM46.06 0.20L46.06 0.20Q43.63 0.20 42.13-1.25Q40.63-2.71 40.63-5.03L40.63-5.03L40.63-5.30Q40.63-6.92 41.23-8.16Q41.83-9.40 42.98-10.08Q44.13-10.76 45.71-10.76L45.71-10.76Q47.94-10.76 49.23-9.38Q50.52-8.00 50.52-5.53L50.52-5.53L50.52-4.25L43.97-4.25Q44.15-3.36 44.75-2.85Q45.34-2.34 46.29-2.34L46.29-2.34Q47.85-2.34 48.73-3.44L48.73-3.44L50.23-1.66Q49.62-0.81 48.49-0.31Q47.36 0.20 46.06 0.20ZM45.69-8.22L45.69-8.22Q44.25-8.22 43.97-6.31L43.97-6.31L47.29-6.31L47.29-6.56Q47.31-7.35 46.89-7.79Q46.47-8.22 45.69-8.22ZM52.38-13.19L55.67-13.19L55.67-10.57L57.41-10.57L57.41-8.28L55.67-8.28L55.67-3.45Q55.67-2.85 55.89-2.62Q56.10-2.38 56.74-2.38L56.74-2.38Q57.23-2.38 57.56-2.44L57.56-2.44L57.56-0.09Q56.67 0.20 55.70 0.20L55.70 0.20Q54.00 0.20 53.19-0.61Q52.38-1.41 52.38-3.04L52.38-3.04L52.38-8.28L51.04-8.28L51.04-10.57L52.38-10.57L52.38-13.19ZM59.25-13.19L62.54-13.19L62.54-10.57L64.28-10.57L64.28-8.28L62.54-8.28L62.54-3.45Q62.54-2.85 62.75-2.62Q62.97-2.38 63.60-2.38L63.60-2.38Q64.09-2.38 64.42-2.44L64.42-2.44L64.42-0.09Q63.54 0.20 62.57 0.20L62.57 0.20Q60.87 0.20 60.06-0.61Q59.25-1.41 59.25-3.04L59.25-3.04L59.25-8.28L57.90-8.28L57.90-10.57L59.25-10.57L59.25-13.19ZM70.68 0.20L70.68 0.20Q68.25 0.20 66.75-1.25Q65.24-2.71 65.24-5.03L65.24-5.03L65.24-5.30Q65.24-6.92 65.84-8.16Q66.45-9.40 67.60-10.08Q68.75-10.76 70.33-10.76L70.33-10.76Q72.56-10.76 73.85-9.38Q75.14-8.00 75.14-5.53L75.14-5.53L75.14-4.25L68.59-4.25Q68.77-3.36 69.37-2.85Q69.96-2.34 70.91-2.34L70.91-2.34Q72.47-2.34 73.35-3.44L73.35-3.44L74.85-1.66Q74.24-0.81 73.11-0.31Q71.98 0.20 70.68 0.20ZM70.31-8.22L70.31-8.22Q68.87-8.22 68.59-6.31L68.59-6.31L71.91-6.31L71.91-6.56Q71.93-7.35 71.51-7.79Q71.09-8.22 70.31-8.22ZM82.91-10.64L82.85-7.59L81.77-7.67Q80.21-7.67 79.78-6.69L79.78-6.69L79.78 0L76.48 0L76.48-10.57L79.57-10.57L79.68-9.21Q80.51-10.76 81.99-10.76L81.99-10.76Q82.52-10.76 82.91-10.64L82.91-10.64Z"></path></g></g></svg>